<svg width="15" height="16" viewBox="0 0 15 16" fill="none" xmlns="http://www.w3.org/2000/svg">
<path d="M1.99805 9.03955V14.0396C1.99805 14.5918 2.44576 15.0396 2.99805 15.0396H12.998C13.5503 15.0396 13.998 14.5918 13.998 14.0396V4.03955C13.998 3.48727 13.5503 3.03955 12.998 3.03955H7.99805" stroke="#4B4B4B"/>
<path fill-rule="evenodd" clip-rule="evenodd" d="M3.80836 1.26982C3.95921 0.857326 4.54536 0.857326 4.69685 1.26982L5.40509 3.20631C5.54891 3.59779 5.85892 3.90654 6.25204 4.04914L8.19653 4.75509C8.61072 4.90596 8.61072 5.48906 8.19653 5.63993L6.25204 6.34525L6.17917 6.3739C5.82057 6.52731 5.53997 6.82141 5.40509 7.18871L4.69685 9.1252L4.68151 9.16212C4.51468 9.52498 3.98988 9.52498 3.82369 9.16212L3.80835 9.1252L3.09948 7.18871C2.96525 6.82141 2.68463 6.52731 2.3254 6.3739L2.25253 6.34525L0.308694 5.63993C-0.105502 5.48906 -0.105502 4.90596 0.308694 4.75509L2.25253 4.04914C2.62135 3.91545 2.9173 3.63599 3.07071 3.27887L3.09948 3.20631L3.80836 1.26982ZM4.02249 3.5412C3.78726 4.1835 3.2874 4.69339 2.65076 4.94484L2.58876 4.9684L1.95722 5.19756L2.58876 5.42672L2.65076 5.45027C3.2874 5.70172 3.78726 6.21161 4.02249 6.85392L4.2526 7.48349L4.4827 6.85392L4.50635 6.79217C4.7582 6.15878 5.27084 5.66098 5.9158 5.42672L6.54734 5.19756L5.9158 4.9684C5.27084 4.73414 4.7582 4.23634 4.50635 3.60295L4.4827 3.5412L4.2526 2.91163L4.02249 3.5412Z" fill="#4B4B4B"/>
</svg>
