<svg width="17" height="18" viewBox="0 0 17 18" fill="none" xmlns="http://www.w3.org/2000/svg">
<path d="M7.55712 2.55814C7.55712 2.25302 7.82596 2 8.15015 2H11.139C11.4632 2 11.732 2.25302 11.732 2.55814C11.732 2.86326 11.4632 3.11628 11.139 3.11628H8.15015C7.82596 3.11628 7.55712 2.86326 7.55712 2.55814ZM0.591071 9.60558C0.266884 9.60558 -0.00195312 9.8586 -0.00195312 10.1637V12.9767C-0.00195312 13.2819 0.266884 13.5349 0.591071 13.5349C0.915257 13.5349 1.18409 13.2819 1.18409 12.9767V10.1637C1.18409 9.8586 0.915257 9.60558 0.591071 9.60558ZM13.2422 7.40279C13.5664 7.40279 13.8353 7.14977 13.8353 6.84465V4.03163C13.8353 3.72651 13.5664 3.48093 13.2422 3.48093C12.9181 3.48093 12.6492 3.73395 12.6492 4.04651V6.85209C12.6492 7.15721 12.9181 7.41023 13.2422 7.41023V7.40279ZM0.591071 3.97209C0.266884 3.97209 -0.00195312 4.22512 -0.00195312 4.53023V7.34326C-0.00195312 7.64837 0.266884 7.9014 0.591071 7.9014C0.915257 7.9014 1.18409 7.64837 1.18409 7.34326V4.53023C1.18409 4.22512 0.915257 3.97209 0.591071 3.97209ZM5.67526 13.907H2.68642C2.36224 13.907 2.0934 14.16 2.0934 14.4651C2.0934 14.7702 2.36224 15.0233 2.68642 15.0233H5.67526C5.99945 15.0233 6.26829 14.7702 6.26829 14.4651C6.26829 14.16 5.99945 13.907 5.67526 13.907ZM5.1534 3.11628C5.47759 3.11628 5.74642 2.86326 5.74642 2.55814C5.74642 2.25302 5.47759 2 5.1534 2H2.16456C1.84037 2 1.57944 2.25302 1.57944 2.55814C1.57944 2.86326 1.84828 3.11628 2.18037 3.11628H5.16131H5.1534ZM16.9822 13.334C16.919 13.6912 16.6264 13.9665 16.2548 14.0409L12.9813 14.666L11.5502 17.5014C11.392 17.8065 11.0678 18 10.712 18C10.6883 18 10.6725 18 10.6488 18C10.2692 17.9777 9.94503 17.7395 9.82643 17.3898L6.92457 8.69023C6.80596 8.34047 6.92456 7.96837 7.24084 7.73767C7.54922 7.51442 7.96038 7.49209 8.29247 7.67814L16.5553 12.4335C16.8795 12.6195 17.0534 12.9767 16.9822 13.3265V13.334ZM15.3692 13.066L8.25294 8.97302L10.7515 16.4595L12.0325 13.9293C12.1115 13.773 12.2697 13.654 12.4515 13.6242L15.3692 13.066Z" fill="#4B4B4B"/>
</svg>
