<svg width="14" height="14" viewBox="0 0 14 14" fill="none" xmlns="http://www.w3.org/2000/svg">
<path d="M6.41745 0.750675C6.27325 0.749998 6.13446 0.807542 6.0329 0.909093C5.93068 1.01132 5.87313 1.1501 5.87381 1.29431C5.87448 1.43784 5.93203 1.57595 6.03426 1.67681C6.13581 1.77837 6.27391 1.83456 6.41743 1.83388H12.3744C12.6837 1.83388 12.9139 2.06813 12.9139 2.37751V8.87395L12.9146 8.87462C12.9139 9.01883 12.9708 9.15761 13.073 9.25985C13.1752 9.36208 13.314 9.41894 13.4582 9.41826C13.6018 9.41759 13.7392 9.36004 13.8407 9.25849C13.9416 9.15627 13.9985 9.01816 13.9978 8.87464V2.37751C13.9978 1.48658 13.2653 0.75 12.375 0.75L6.41745 0.750675ZM1.54025 5.62439C1.39605 5.62507 1.25862 5.68261 1.15775 5.78416C1.0562 5.88639 0.99933 6.02449 1.00001 6.16801V12.1249C1.00001 13.0159 1.73253 13.7484 2.62346 13.7484H9.12406C9.42195 13.747 9.66296 13.506 9.66363 13.2088C9.66431 13.0646 9.60812 12.9272 9.50657 12.825C9.40569 12.7227 9.26826 12.6652 9.12407 12.6645H2.62347C2.31407 12.6645 2.08389 12.4343 2.08389 12.1249V6.16802C2.08457 6.02382 2.02703 5.88503 1.9248 5.7828C1.82325 5.68057 1.68446 5.62371 1.54025 5.62439Z" fill="#4B4B4B"/>
<path d="M10.2084 8.33497C9.31748 8.33497 8.58496 9.0675 8.58496 9.95842V13.2087C8.58496 13.4274 8.71698 13.6244 8.91873 13.7083C9.12115 13.7923 9.35336 13.7463 9.50839 13.5919L13.8384 9.25771V9.25839C13.9921 9.10403 14.0381 8.87181 13.9555 8.67075C13.8723 8.469 13.6766 8.33631 13.4586 8.33496L10.2084 8.33497ZM10.2084 9.41818H12.1474L9.66491 11.9007V9.9577C9.66491 9.6483 9.89971 9.41818 10.2084 9.41818Z" fill="#4B4B4B"/>
<path d="M2.83372 0.250008C2.64521 0.249123 2.46379 0.324346 2.33014 0.457097C2.19739 0.590731 2.12217 0.772151 2.12305 0.960671V5.20414C2.12217 5.39353 2.19739 5.57406 2.33014 5.70771C2.46378 5.84135 2.6452 5.91569 2.83372 5.91569C3.02134 5.9148 3.20188 5.83958 3.33374 5.70594C3.46649 5.57319 3.53994 5.39266 3.53906 5.20416V0.960692C3.53994 0.773073 3.46649 0.592532 3.33374 0.458907C3.20187 0.326157 3.02133 0.250894 2.83372 0.250008Z" fill="#4B4B4B"/>
<path d="M0.70624 2.37785C0.316829 2.37874 0.00177498 2.69379 7.81122e-06 3.0832C-0.000877132 3.27082 0.0734631 3.45136 0.206214 3.58499C0.338078 3.71774 0.517733 3.79296 0.706231 3.79385H4.95513C5.14364 3.79473 5.32506 3.71951 5.45871 3.58587C5.59234 3.45312 5.66668 3.2717 5.6658 3.0823C5.66491 2.89468 5.58969 2.71502 5.45694 2.58228C5.32331 2.45042 5.14277 2.37608 4.95516 2.37696L0.70624 2.37785Z" fill="#4B4B4B"/>
</svg>
