<svg width="13" height="14" viewBox="0 0 13 14" fill="none" xmlns="http://www.w3.org/2000/svg">
<path d="M6.96774 1.98245V9.87097C6.96774 10.1916 6.70778 10.4516 6.3871 10.4516C6.06642 10.4516 5.80645 10.1916 5.80645 9.87097V1.98245L4.47509 3.3138C4.24834 3.54056 3.88069 3.54056 3.65394 3.3138C3.42718 3.08705 3.42718 2.7194 3.65394 2.49265L5.97652 0.170067C6.20327 -0.056689 6.57092 -0.056689 6.79768 0.170067L9.12026 2.49265C9.34701 2.7194 9.34701 3.08705 9.12026 3.3138C8.8935 3.54056 8.52585 3.54056 8.2991 3.3138L6.96774 1.98245ZM8.70968 6.90323C8.389 6.90323 8.12903 6.64326 8.12903 6.32258C8.12903 6.0019 8.389 5.74194 8.70968 5.74194H12.1935C12.5142 5.74194 12.7742 6.0019 12.7742 6.32258V13.4194C12.7742 13.74 12.5142 14 12.1935 14H0.580645C0.259964 14 0 13.74 0 13.4194V6.3871C0 6.07061 0.253458 5.81241 0.569894 5.80655L4.05377 5.74204C4.37439 5.7361 4.63912 5.9912 4.64506 6.31183C4.651 6.63246 4.39589 6.89719 4.07527 6.90313L1.16129 6.95709V12.8387H11.6129V6.90323H8.70968Z" fill="#4B4B4B"/>
</svg>
