<svg width="13" height="13" viewBox="0 0 13 13" fill="none" xmlns="http://www.w3.org/2000/svg">
<path d="M7.61339 4.81283C7.51184 4.27967 7.25794 3.77189 6.83903 3.35297C5.7473 2.26125 3.97008 2.26125 2.86567 3.35297C1.77394 4.44469 1.77394 6.22191 2.86567 7.32633C3.29728 7.75794 3.84314 8.02452 4.40169 8.11339L4.10972 7.22478C3.85583 7.12322 3.62734 6.97089 3.42422 6.78047C2.63717 5.99341 2.63717 4.71128 3.42422 3.92422C4.21128 3.13717 5.49342 3.13717 6.28047 3.92422C6.4582 4.10194 6.59783 4.30506 6.68669 4.52086L7.61339 4.81283Z" fill="#878787"/>
<path d="M5.0873 10.17L4.83341 9.39563C3.80516 9.39563 2.77691 9.0021 1.97716 8.21504C0.390357 6.62824 0.403052 4.06396 1.97716 2.47715C3.56397 0.890349 6.12825 0.890349 7.71505 2.47715C8.47672 3.23882 8.87024 4.24168 8.89563 5.24454L9.68269 5.51113C9.73347 4.2163 9.25107 2.90877 8.2736 1.9186C6.38213 0.027132 3.31008 0.027132 1.4186 1.9186C-0.472868 3.81008 -0.472868 6.88213 1.4186 8.7736C2.43416 9.77646 3.77977 10.2462 5.0873 10.17Z" fill="#878787"/>
<path d="M4.93451 4.74949C4.75679 4.68602 4.56637 4.7368 4.43943 4.86374C4.31249 4.99068 4.2617 5.1811 4.32518 5.35883L6.61018 12.2265C6.72443 12.5693 7.19412 12.5947 7.35915 12.2773L8.75554 9.37027C8.79362 9.2941 8.8571 9.21793 8.94596 9.17985L11.853 7.78346C12.183 7.63113 12.145 7.14874 11.8022 7.03449L4.93451 4.74949Z" fill="#878787"/>
</svg>
