<svg width="73" height="15" viewBox="0 0 73 15" fill="none" xmlns="http://www.w3.org/2000/svg">
<rect x="0.5" y="1" width="72" height="13" rx="4.5" stroke="#D9D9D9"/>
<path d="M13.7727 12.0087C14.6233 11.6996 15.3458 11.1465 15.867 10.4054C16.0265 10.18 15.972 9.8674 15.7444 9.70875C15.519 9.54931 15.2064 9.60382 15.0477 9.83138C14.6471 10.403 14.086 10.831 13.4312 11.0689C11.6474 11.7171 9.66187 10.7664 9.00262 8.95216C8.34337 7.13788 9.25763 5.13354 11.0393 4.48615C12.7448 3.86642 14.6374 4.71046 15.3746 6.37328L14.1323 5.78054C13.8824 5.66203 13.5836 5.76815 13.4651 6.01807C13.3466 6.26799 13.4527 6.56681 13.7026 6.68532L15.9268 7.74379C16.0484 7.80057 16.187 7.80931 16.3132 7.76346C16.4394 7.71761 16.5408 7.6241 16.5968 7.50033L17.6227 5.2609C17.7382 5.00959 17.6277 4.71235 17.3764 4.59681C17.1251 4.48127 16.8279 4.59174 16.7123 4.84304L16.2462 5.86449C15.2667 3.79227 12.8688 2.75749 10.7 3.54559C8.3984 4.38191 7.21547 6.96162 8.06285 9.29364C8.91023 11.6257 11.4733 12.8442 13.7727 12.0087Z" fill="#995EE1"/>
<path d="M23.3823 10.5V4.68182H25.3482C25.8027 4.68182 26.1758 4.75947 26.4675 4.91477C26.7592 5.06818 26.9751 5.27936 27.1152 5.5483C27.2554 5.81723 27.3255 6.12311 27.3255 6.46591C27.3255 6.80871 27.2554 7.11269 27.1152 7.37784C26.9751 7.64299 26.7601 7.85133 26.4703 8.00284C26.1806 8.15246 25.8103 8.22727 25.3596 8.22727H23.7686V7.59091H25.3368C25.6474 7.59091 25.8974 7.54545 26.0868 7.45455C26.2781 7.36364 26.4164 7.23485 26.5016 7.06818C26.5887 6.89962 26.6323 6.69886 26.6323 6.46591C26.6323 6.23295 26.5887 6.02936 26.5016 5.85511C26.4145 5.68087 26.2753 5.5464 26.084 5.4517C25.8927 5.35511 25.6399 5.30682 25.3255 5.30682H24.0868V10.5H23.3823ZM26.1209 7.88636L27.5527 10.5H26.7346L25.3255 7.88636H26.1209ZM30.1912 10.5909C29.7708 10.5909 29.4081 10.4981 29.1032 10.3125C28.8001 10.125 28.5662 9.86364 28.4015 9.52841C28.2386 9.19129 28.1571 8.79924 28.1571 8.35227C28.1571 7.9053 28.2386 7.51136 28.4015 7.17045C28.5662 6.82765 28.7954 6.56061 29.089 6.36932C29.3844 6.17614 29.7291 6.07955 30.123 6.07955C30.3503 6.07955 30.5748 6.11742 30.7963 6.19318C31.0179 6.26894 31.2196 6.39205 31.4015 6.5625C31.5833 6.73106 31.7282 6.95455 31.8361 7.23295C31.9441 7.51136 31.998 7.85417 31.998 8.26136V8.54545H28.6344V7.96591H31.3162C31.3162 7.7197 31.267 7.5 31.1685 7.30682C31.0719 7.11364 30.9337 6.96117 30.7537 6.84943C30.5757 6.73769 30.3655 6.68182 30.123 6.68182C29.856 6.68182 29.6249 6.74811 29.4299 6.88068C29.2367 7.01136 29.088 7.18182 28.9838 7.39205C28.8797 7.60227 28.8276 7.82765 28.8276 8.06818V8.45455C28.8276 8.78409 28.8844 9.06345 28.998 9.29261C29.1136 9.51989 29.2736 9.69318 29.4782 9.8125C29.6827 9.92992 29.9204 9.98864 30.1912 9.98864C30.3674 9.98864 30.5265 9.96402 30.6685 9.91477C30.8124 9.86364 30.9365 9.78788 31.0407 9.6875C31.1448 9.58523 31.2253 9.45833 31.2821 9.30682L31.9299 9.48864C31.8617 9.70833 31.7471 9.90152 31.5861 10.0682C31.4251 10.233 31.2263 10.3617 30.9895 10.4545C30.7528 10.5455 30.4867 10.5909 30.1912 10.5909ZM34.7793 12.2273C34.4554 12.2273 34.177 12.1856 33.9441 12.1023C33.7111 12.0208 33.517 11.9129 33.3617 11.7784C33.2083 11.6458 33.0861 11.5038 32.9952 11.3523L33.5293 10.9773C33.5899 11.0568 33.6666 11.1477 33.7594 11.25C33.8522 11.3542 33.9791 11.4441 34.1401 11.5199C34.303 11.5975 34.516 11.6364 34.7793 11.6364C35.1316 11.6364 35.4223 11.5511 35.6515 11.3807C35.8806 11.2102 35.9952 10.9432 35.9952 10.5795V9.69318H35.9384C35.8891 9.77273 35.8191 9.87121 35.7282 9.98864C35.6391 10.1042 35.5104 10.2074 35.3418 10.2983C35.1751 10.3873 34.9498 10.4318 34.6657 10.4318C34.3134 10.4318 33.9971 10.3485 33.7168 10.1818C33.4384 10.0152 33.2177 9.77273 33.0549 9.45455C32.8939 9.13636 32.8134 8.75 32.8134 8.29545C32.8134 7.84848 32.892 7.45928 33.0492 7.12784C33.2064 6.79451 33.4251 6.53693 33.7054 6.35511C33.9857 6.1714 34.3096 6.07955 34.677 6.07955C34.9611 6.07955 35.1865 6.12689 35.3532 6.22159C35.5217 6.31439 35.6505 6.42045 35.7395 6.53977C35.8304 6.6572 35.9005 6.75379 35.9498 6.82955H36.0179V6.13636H36.6657V10.625C36.6657 11 36.5804 11.3049 36.41 11.5398C36.2414 11.7765 36.0141 11.9498 35.7282 12.0597C35.4441 12.1714 35.1278 12.2273 34.7793 12.2273ZM34.7566 9.82955C35.0255 9.82955 35.2528 9.76799 35.4384 9.64489C35.624 9.52178 35.7651 9.3447 35.8617 9.11364C35.9583 8.88258 36.0066 8.60606 36.0066 8.28409C36.0066 7.9697 35.9592 7.69223 35.8645 7.4517C35.7698 7.21117 35.6297 7.02273 35.4441 6.88636C35.2585 6.75 35.0293 6.68182 34.7566 6.68182C34.4725 6.68182 34.2357 6.75379 34.0463 6.89773C33.8588 7.04167 33.7177 7.23485 33.623 7.47727C33.5302 7.7197 33.4838 7.98864 33.4838 8.28409C33.4838 8.58712 33.5312 8.85511 33.6259 9.08807C33.7225 9.31913 33.8645 9.50095 34.052 9.63352C34.2414 9.7642 34.4763 9.82955 34.7566 9.82955ZM39.7225 10.5909C39.302 10.5909 38.9393 10.4981 38.6344 10.3125C38.3314 10.125 38.0975 9.86364 37.9327 9.52841C37.7698 9.19129 37.6884 8.79924 37.6884 8.35227C37.6884 7.9053 37.7698 7.51136 37.9327 7.17045C38.0975 6.82765 38.3266 6.56061 38.6202 6.36932C38.9157 6.17614 39.2604 6.07955 39.6543 6.07955C39.8816 6.07955 40.106 6.11742 40.3276 6.19318C40.5492 6.26894 40.7509 6.39205 40.9327 6.5625C41.1145 6.73106 41.2594 6.95455 41.3674 7.23295C41.4753 7.51136 41.5293 7.85417 41.5293 8.26136V8.54545H38.1657V7.96591H40.8475C40.8475 7.7197 40.7982 7.5 40.6998 7.30682C40.6032 7.11364 40.4649 6.96117 40.285 6.84943C40.1069 6.73769 39.8967 6.68182 39.6543 6.68182C39.3873 6.68182 39.1562 6.74811 38.9611 6.88068C38.7679 7.01136 38.6193 7.18182 38.5151 7.39205C38.4109 7.60227 38.3588 7.82765 38.3588 8.06818V8.45455C38.3588 8.78409 38.4157 9.06345 38.5293 9.29261C38.6448 9.51989 38.8049 9.69318 39.0094 9.8125C39.214 9.92992 39.4516 9.98864 39.7225 9.98864C39.8986 9.98864 40.0577 9.96402 40.1998 9.91477C40.3437 9.86364 40.4677 9.78788 40.5719 9.6875C40.6761 9.58523 40.7566 9.45833 40.8134 9.30682L41.4611 9.48864C41.3929 9.70833 41.2783 9.90152 41.1174 10.0682C40.9564 10.233 40.7575 10.3617 40.5208 10.4545C40.284 10.5455 40.0179 10.5909 39.7225 10.5909ZM43.2196 7.875V10.5H42.5492V6.13636H43.1969V6.81818H43.2537C43.356 6.59659 43.5113 6.41856 43.7196 6.28409C43.928 6.14773 44.1969 6.07955 44.5265 6.07955C44.8219 6.07955 45.0804 6.14015 45.302 6.26136C45.5236 6.38068 45.696 6.5625 45.8191 6.80682C45.9422 7.04924 46.0037 7.35606 46.0037 7.72727V10.5H45.3333V7.77273C45.3333 7.42992 45.2443 7.16288 45.0662 6.97159C44.8882 6.77841 44.6439 6.68182 44.3333 6.68182C44.1193 6.68182 43.928 6.72822 43.7594 6.82102C43.5927 6.91383 43.4611 7.04924 43.3645 7.22727C43.2679 7.4053 43.2196 7.62121 43.2196 7.875ZM49.0584 10.5909C48.638 10.5909 48.2753 10.4981 47.9703 10.3125C47.6673 10.125 47.4334 9.86364 47.2686 9.52841C47.1058 9.19129 47.0243 8.79924 47.0243 8.35227C47.0243 7.9053 47.1058 7.51136 47.2686 7.17045C47.4334 6.82765 47.6626 6.56061 47.9561 6.36932C48.2516 6.17614 48.5963 6.07955 48.9902 6.07955C49.2175 6.07955 49.4419 6.11742 49.6635 6.19318C49.8851 6.26894 50.0868 6.39205 50.2686 6.5625C50.4505 6.73106 50.5953 6.95455 50.7033 7.23295C50.8113 7.51136 50.8652 7.85417 50.8652 8.26136V8.54545H47.5016V7.96591H50.1834C50.1834 7.7197 50.1342 7.5 50.0357 7.30682C49.9391 7.11364 49.8008 6.96117 49.6209 6.84943C49.4429 6.73769 49.2327 6.68182 48.9902 6.68182C48.7232 6.68182 48.4921 6.74811 48.2971 6.88068C48.1039 7.01136 47.9552 7.18182 47.851 7.39205C47.7469 7.60227 47.6948 7.82765 47.6948 8.06818V8.45455C47.6948 8.78409 47.7516 9.06345 47.8652 9.29261C47.9808 9.51989 48.1408 9.69318 48.3453 9.8125C48.5499 9.92992 48.7876 9.98864 49.0584 9.98864C49.2346 9.98864 49.3936 9.96402 49.5357 9.91477C49.6796 9.86364 49.8037 9.78788 49.9078 9.6875C50.012 9.58523 50.0925 9.45833 50.1493 9.30682L50.7971 9.48864C50.7289 9.70833 50.6143 9.90152 50.4533 10.0682C50.2923 10.233 50.0935 10.3617 49.8567 10.4545C49.62 10.5455 49.3539 10.5909 49.0584 10.5909ZM51.8851 10.5V6.13636H52.5328V6.79545H52.5783C52.6578 6.57955 52.8018 6.40436 53.0101 6.26989C53.2185 6.13542 53.4533 6.06818 53.7147 6.06818C53.7639 6.06818 53.8255 6.06913 53.8993 6.07102C53.9732 6.07292 54.0291 6.07576 54.0669 6.07955V6.76136C54.0442 6.75568 53.9921 6.74716 53.9107 6.7358C53.8311 6.72254 53.7469 6.71591 53.6578 6.71591C53.4457 6.71591 53.2563 6.76042 53.0897 6.84943C52.9249 6.93655 52.7942 7.05777 52.6976 7.21307C52.6029 7.36648 52.5556 7.54167 52.5556 7.73864V10.5H51.8851ZM56.1458 10.6023C55.8693 10.6023 55.6183 10.5502 55.3929 10.446C55.1676 10.34 54.9886 10.1875 54.856 9.98864C54.7234 9.78788 54.6571 9.54545 54.6571 9.26136C54.6571 9.01136 54.7064 8.80871 54.8049 8.65341C54.9033 8.49621 55.035 8.37311 55.1998 8.28409C55.3645 8.19508 55.5463 8.12879 55.7452 8.08523C55.946 8.03977 56.1477 8.00379 56.3503 7.97727C56.6155 7.94318 56.8304 7.91761 56.9952 7.90057C57.1619 7.88163 57.2831 7.85038 57.3588 7.80682C57.4365 7.76326 57.4753 7.6875 57.4753 7.57955V7.55682C57.4753 7.27652 57.3986 7.05871 57.2452 6.90341C57.0937 6.74811 56.8636 6.67045 56.5549 6.67045C56.2348 6.67045 55.9838 6.74053 55.802 6.88068C55.6202 7.02083 55.4924 7.17045 55.4185 7.32955L54.7821 7.10227C54.8958 6.83712 55.0473 6.63068 55.2367 6.48295C55.428 6.33333 55.6363 6.22917 55.8617 6.17045C56.089 6.10985 56.3124 6.07955 56.5321 6.07955C56.6723 6.07955 56.8333 6.09659 57.0151 6.13068C57.1988 6.16288 57.3759 6.23011 57.5463 6.33239C57.7187 6.43466 57.8617 6.58902 57.9753 6.79545C58.089 7.00189 58.1458 7.27841 58.1458 7.625V10.5H57.4753V9.90909H57.4412C57.3958 10.0038 57.32 10.1051 57.214 10.2131C57.1079 10.321 56.9668 10.4129 56.7907 10.4886C56.6145 10.5644 56.3996 10.6023 56.1458 10.6023ZM56.248 10C56.5132 10 56.7367 9.94792 56.9185 9.84375C57.1022 9.73958 57.2405 9.60511 57.3333 9.44034C57.428 9.27557 57.4753 9.10227 57.4753 8.92045V8.30682C57.4469 8.34091 57.3844 8.37216 57.2878 8.40057C57.1931 8.42708 57.0833 8.45076 56.9583 8.47159C56.8352 8.49053 56.7149 8.50758 56.5975 8.52273C56.4819 8.53598 56.3882 8.54735 56.3162 8.55682C56.142 8.57955 55.9791 8.61648 55.8276 8.66761C55.678 8.71686 55.5568 8.79167 55.464 8.89205C55.373 8.99053 55.3276 9.125 55.3276 9.29545C55.3276 9.52841 55.4138 9.70455 55.5861 9.82386C55.7604 9.94129 55.981 10 56.248 10ZM61.2672 6.13636V6.70455H59.0059V6.13636H61.2672ZM59.665 5.09091H60.3354V9.25C60.3354 9.43939 60.3629 9.58144 60.4178 9.67614C60.4746 9.76894 60.5466 9.83144 60.6337 9.86364C60.7227 9.89394 60.8165 9.90909 60.915 9.90909C60.9888 9.90909 61.0494 9.9053 61.0968 9.89773C61.1441 9.88826 61.182 9.88068 61.2104 9.875L61.3468 10.4773C61.3013 10.4943 61.2379 10.5114 61.1564 10.5284C61.075 10.5473 60.9718 10.5568 60.8468 10.5568C60.6574 10.5568 60.4718 10.5161 60.29 10.4347C60.11 10.3532 59.9604 10.2292 59.8411 10.0625C59.7237 9.89583 59.665 9.68561 59.665 9.43182V5.09091ZM64.0584 10.5909C63.638 10.5909 63.2753 10.4981 62.9703 10.3125C62.6673 10.125 62.4334 9.86364 62.2686 9.52841C62.1058 9.19129 62.0243 8.79924 62.0243 8.35227C62.0243 7.9053 62.1058 7.51136 62.2686 7.17045C62.4334 6.82765 62.6626 6.56061 62.9561 6.36932C63.2516 6.17614 63.5963 6.07955 63.9902 6.07955C64.2175 6.07955 64.4419 6.11742 64.6635 6.19318C64.8851 6.26894 65.0868 6.39205 65.2686 6.5625C65.4505 6.73106 65.5953 6.95455 65.7033 7.23295C65.8113 7.51136 65.8652 7.85417 65.8652 8.26136V8.54545H62.5016V7.96591H65.1834C65.1834 7.7197 65.1342 7.5 65.0357 7.30682C64.9391 7.11364 64.8008 6.96117 64.6209 6.84943C64.4429 6.73769 64.2327 6.68182 63.9902 6.68182C63.7232 6.68182 63.4921 6.74811 63.2971 6.88068C63.1039 7.01136 62.9552 7.18182 62.851 7.39205C62.7469 7.60227 62.6948 7.82765 62.6948 8.06818V8.45455C62.6948 8.78409 62.7516 9.06345 62.8652 9.29261C62.9808 9.51989 63.1408 9.69318 63.3453 9.8125C63.5499 9.92992 63.7876 9.98864 64.0584 9.98864C64.2346 9.98864 64.3936 9.96402 64.5357 9.91477C64.6796 9.86364 64.8037 9.78788 64.9078 9.6875C65.012 9.58523 65.0925 9.45833 65.1493 9.30682L65.7971 9.48864C65.7289 9.70833 65.6143 9.90152 65.4533 10.0682C65.2923 10.233 65.0935 10.3617 64.8567 10.4545C64.62 10.5455 64.3539 10.5909 64.0584 10.5909Z" fill="#995EE1"/>
</svg>
