<svg width="67" height="15" viewBox="0 0 67 15" fill="none" xmlns="http://www.w3.org/2000/svg">
<rect x="0.5" y="1" width="66" height="13" rx="4.5" stroke="#5661F6"/>
<path d="M13.25 2.9502V5.5502C8.25 5.5502 7 8.2152 7 12.0502C7.65 9.4762 9.5 8.1502 12 8.1502H13.25V10.7502L17 6.6422L13.25 2.9502Z" fill="#5661F6"/>
<path d="M20.695 5.30682V4.68182H25.0586V5.30682H23.229V10.5H22.5245V5.30682H20.695ZM27.195 10.5909C26.801 10.5909 26.4554 10.4972 26.158 10.3097C25.8626 10.1222 25.6315 9.85985 25.4648 9.52273C25.3001 9.18561 25.2177 8.79167 25.2177 8.34091C25.2177 7.88636 25.3001 7.48958 25.4648 7.15057C25.6315 6.81155 25.8626 6.5483 26.158 6.3608C26.4554 6.1733 26.801 6.07955 27.195 6.07955C27.5889 6.07955 27.9336 6.1733 28.229 6.3608C28.5264 6.5483 28.7575 6.81155 28.9222 7.15057C29.0889 7.48958 29.1722 7.88636 29.1722 8.34091C29.1722 8.79167 29.0889 9.18561 28.9222 9.52273C28.7575 9.85985 28.5264 10.1222 28.229 10.3097C27.9336 10.4972 27.5889 10.5909 27.195 10.5909ZM27.195 9.98864C27.4942 9.98864 27.7404 9.91193 27.9336 9.75852C28.1268 9.60511 28.2698 9.40341 28.3626 9.15341C28.4554 8.90341 28.5018 8.63258 28.5018 8.34091C28.5018 8.04924 28.4554 7.77746 28.3626 7.52557C28.2698 7.27367 28.1268 7.07008 27.9336 6.91477C27.7404 6.75947 27.4942 6.68182 27.195 6.68182C26.8957 6.68182 26.6495 6.75947 26.4563 6.91477C26.2631 7.07008 26.1201 7.27367 26.0273 7.52557C25.9345 7.77746 25.8881 8.04924 25.8881 8.34091C25.8881 8.63258 25.9345 8.90341 26.0273 9.15341C26.1201 9.40341 26.2631 9.60511 26.4563 9.75852C26.6495 9.91193 26.8957 9.98864 27.195 9.98864ZM37.2184 6.5H36.5138C36.4722 6.29735 36.3993 6.11932 36.2951 5.96591C36.1928 5.8125 36.0678 5.68371 35.9201 5.57955C35.7743 5.47348 35.6123 5.39394 35.4343 5.34091C35.2563 5.28788 35.0707 5.26136 34.8775 5.26136C34.5252 5.26136 34.2061 5.35038 33.9201 5.52841C33.636 5.70644 33.4097 5.96875 33.2411 6.31534C33.0745 6.66193 32.9911 7.08712 32.9911 7.59091C32.9911 8.0947 33.0745 8.51989 33.2411 8.86648C33.4097 9.21307 33.636 9.47538 33.9201 9.65341C34.2061 9.83144 34.5252 9.92045 34.8775 9.92045C35.0707 9.92045 35.2563 9.89394 35.4343 9.84091C35.6123 9.78788 35.7743 9.70928 35.9201 9.60511C36.0678 9.49905 36.1928 9.36932 36.2951 9.21591C36.3993 9.06061 36.4722 8.88258 36.5138 8.68182H37.2184C37.1654 8.97917 37.0688 9.24527 36.9286 9.48011C36.7885 9.71496 36.6142 9.91477 36.4059 10.0795C36.1976 10.2424 35.9637 10.3665 35.7042 10.4517C35.4466 10.5369 35.171 10.5795 34.8775 10.5795C34.3813 10.5795 33.94 10.4583 33.5536 10.2159C33.1673 9.97348 32.8633 9.62879 32.6417 9.18182C32.4201 8.73485 32.3093 8.20455 32.3093 7.59091C32.3093 6.97727 32.4201 6.44697 32.6417 6C32.8633 5.55303 33.1673 5.20833 33.5536 4.96591C33.94 4.72348 34.3813 4.60227 34.8775 4.60227C35.171 4.60227 35.4466 4.64489 35.7042 4.73011C35.9637 4.81534 36.1976 4.94034 36.4059 5.10511C36.6142 5.26799 36.7885 5.46686 36.9286 5.7017C37.0688 5.93466 37.1654 6.20076 37.2184 6.5ZM39.5501 10.6023C39.2736 10.6023 39.0226 10.5502 38.7972 10.446C38.5719 10.34 38.3929 10.1875 38.2603 9.98864C38.1277 9.78788 38.0614 9.54545 38.0614 9.26136C38.0614 9.01136 38.1107 8.80871 38.2092 8.65341C38.3076 8.49621 38.4393 8.37311 38.604 8.28409C38.7688 8.19508 38.9506 8.12879 39.1495 8.08523C39.3503 8.03977 39.552 8.00379 39.7546 7.97727C40.0198 7.94318 40.2347 7.91761 40.3995 7.90057C40.5662 7.88163 40.6874 7.85038 40.7631 7.80682C40.8408 7.76326 40.8796 7.6875 40.8796 7.57955V7.55682C40.8796 7.27652 40.8029 7.05871 40.6495 6.90341C40.498 6.74811 40.2679 6.67045 39.9592 6.67045C39.6391 6.67045 39.3881 6.74053 39.2063 6.88068C39.0245 7.02083 38.8967 7.17045 38.8228 7.32955L38.1864 7.10227C38.3001 6.83712 38.4516 6.63068 38.641 6.48295C38.8323 6.33333 39.0406 6.22917 39.266 6.17045C39.4933 6.10985 39.7167 6.07955 39.9364 6.07955C40.0766 6.07955 40.2376 6.09659 40.4194 6.13068C40.6031 6.16288 40.7802 6.23011 40.9506 6.33239C41.123 6.43466 41.266 6.58902 41.3796 6.79545C41.4933 7.00189 41.5501 7.27841 41.5501 7.625V10.5H40.8796V9.90909H40.8455C40.8001 10.0038 40.7243 10.1051 40.6183 10.2131C40.5122 10.321 40.3711 10.4129 40.195 10.4886C40.0188 10.5644 39.8039 10.6023 39.5501 10.6023ZM39.6523 10C39.9175 10 40.141 9.94792 40.3228 9.84375C40.5065 9.73958 40.6448 9.60511 40.7376 9.44034C40.8323 9.27557 40.8796 9.10227 40.8796 8.92045V8.30682C40.8512 8.34091 40.7887 8.37216 40.6921 8.40057C40.5974 8.42708 40.4876 8.45076 40.3626 8.47159C40.2395 8.49053 40.1192 8.50758 40.0018 8.52273C39.8862 8.53598 39.7925 8.54735 39.7205 8.55682C39.5463 8.57955 39.3834 8.61648 39.2319 8.66761C39.0823 8.71686 38.9611 8.79167 38.8683 8.89205C38.7773 8.99053 38.7319 9.125 38.7319 9.29545C38.7319 9.52841 38.8181 9.70455 38.9904 9.82386C39.1647 9.94129 39.3853 10 39.6523 10ZM43.4442 7.875V10.5H42.7738V6.13636H43.4215V6.81818H43.4783C43.5806 6.59659 43.7359 6.41856 43.9442 6.28409C44.1526 6.14773 44.4215 6.07955 44.7511 6.07955C45.0465 6.07955 45.305 6.14015 45.5266 6.26136C45.7482 6.38068 45.9206 6.5625 46.0437 6.80682C46.1668 7.04924 46.2283 7.35606 46.2283 7.72727V10.5H45.5579V7.77273C45.5579 7.42992 45.4689 7.16288 45.2908 6.97159C45.1128 6.77841 44.8685 6.68182 44.5579 6.68182C44.3439 6.68182 44.1526 6.72822 43.984 6.82102C43.8174 6.91383 43.6857 7.04924 43.5891 7.22727C43.4925 7.4053 43.4442 7.62121 43.4442 7.875ZM50.8654 6.13636L49.2518 10.5H48.57L46.9563 6.13636H47.6836L48.8881 9.61364H48.9336L50.1381 6.13636H50.8654ZM52.9016 10.6023C52.6251 10.6023 52.3742 10.5502 52.1488 10.446C51.9234 10.34 51.7444 10.1875 51.6119 9.98864C51.4793 9.78788 51.413 9.54545 51.413 9.26136C51.413 9.01136 51.4622 8.80871 51.5607 8.65341C51.6592 8.49621 51.7908 8.37311 51.9556 8.28409C52.1204 8.19508 52.3022 8.12879 52.5011 8.08523C52.7018 8.03977 52.9035 8.00379 53.1062 7.97727C53.3713 7.94318 53.5863 7.91761 53.7511 7.90057C53.9177 7.88163 54.0389 7.85038 54.1147 7.80682C54.1924 7.76326 54.2312 7.6875 54.2312 7.57955V7.55682C54.2312 7.27652 54.1545 7.05871 54.0011 6.90341C53.8496 6.74811 53.6194 6.67045 53.3107 6.67045C52.9906 6.67045 52.7397 6.74053 52.5579 6.88068C52.3761 7.02083 52.2482 7.17045 52.1744 7.32955L51.538 7.10227C51.6516 6.83712 51.8031 6.63068 51.9925 6.48295C52.1838 6.33333 52.3922 6.22917 52.6175 6.17045C52.8448 6.10985 53.0683 6.07955 53.288 6.07955C53.4281 6.07955 53.5891 6.09659 53.771 6.13068C53.9547 6.16288 54.1317 6.23011 54.3022 6.33239C54.4746 6.43466 54.6175 6.58902 54.7312 6.79545C54.8448 7.00189 54.9016 7.27841 54.9016 7.625V10.5H54.2312V9.90909H54.1971C54.1516 10.0038 54.0759 10.1051 53.9698 10.2131C53.8638 10.321 53.7227 10.4129 53.5465 10.4886C53.3704 10.5644 53.1554 10.6023 52.9016 10.6023ZM53.0039 10C53.2691 10 53.4925 9.94792 53.6744 9.84375C53.8581 9.73958 53.9963 9.60511 54.0891 9.44034C54.1838 9.27557 54.2312 9.10227 54.2312 8.92045V8.30682C54.2028 8.34091 54.1403 8.37216 54.0437 8.40057C53.949 8.42708 53.8391 8.45076 53.7141 8.47159C53.591 8.49053 53.4708 8.50758 53.3533 8.52273C53.2378 8.53598 53.1441 8.54735 53.0721 8.55682C52.8978 8.57955 52.735 8.61648 52.5835 8.66761C52.4338 8.71686 52.3126 8.79167 52.2198 8.89205C52.1289 8.99053 52.0835 9.125 52.0835 9.29545C52.0835 9.52841 52.1696 9.70455 52.342 9.82386C52.5162 9.94129 52.7369 10 53.0039 10ZM59.2163 7.11364L58.614 7.28409C58.5761 7.18371 58.5202 7.08617 58.4464 6.99148C58.3744 6.89489 58.2759 6.81534 58.1509 6.75284C58.0259 6.69034 57.8659 6.65909 57.6708 6.65909C57.4038 6.65909 57.1812 6.72064 57.0032 6.84375C56.8271 6.96496 56.739 7.11932 56.739 7.30682C56.739 7.47348 56.7996 7.60511 56.9208 7.7017C57.042 7.7983 57.2314 7.87879 57.489 7.94318L58.1367 8.10227C58.5269 8.19697 58.8176 8.34186 59.0089 8.53693C59.2002 8.73011 59.2958 8.97917 59.2958 9.28409C59.2958 9.53409 59.2238 9.75758 59.0799 9.95455C58.9379 10.1515 58.739 10.3068 58.4833 10.4205C58.2276 10.5341 57.9303 10.5909 57.5913 10.5909C57.1462 10.5909 56.7778 10.4943 56.4862 10.3011C56.1945 10.108 56.0098 9.82576 55.9322 9.45455L56.5685 9.29545C56.6291 9.5303 56.7437 9.70644 56.9123 9.82386C57.0827 9.94129 57.3053 10 57.5799 10C57.8924 10 58.1405 9.93371 58.3242 9.80114C58.5098 9.66667 58.6026 9.50568 58.6026 9.31818C58.6026 9.16667 58.5496 9.03977 58.4435 8.9375C58.3375 8.83333 58.1746 8.75568 57.9549 8.70455L57.2276 8.53409C56.828 8.43939 56.5344 8.29261 56.3469 8.09375C56.1613 7.89299 56.0685 7.64205 56.0685 7.34091C56.0685 7.0947 56.1377 6.87689 56.2759 6.6875C56.4161 6.49811 56.6064 6.34943 56.8469 6.24148C57.0894 6.13352 57.364 6.07955 57.6708 6.07955C58.1026 6.07955 58.4416 6.17424 58.6879 6.36364C58.936 6.55303 59.1121 6.80303 59.2163 7.11364Z" fill="#5661F6"/>
</svg>
